<svg width="32" height="32" viewBox="0 0 32 32" fill="none" xmlns="http://www.w3.org/2000/svg">
<path d="M21.8994 6.66699C24.7275 6.66699 26.1418 6.6666 27.0205 7.54492C27.8992 8.4236 27.8994 9.83857 27.8994 12.667V19.333C27.8994 22.1614 27.8992 23.5764 27.0205 24.4551C26.1418 25.3334 24.7275 25.333 21.8994 25.333H9.98535C7.15731 25.333 5.74292 25.3335 4.86426 24.4551C3.98558 23.5764 3.98535 22.1614 3.98535 19.333V12.667C3.98535 9.83857 3.98558 8.4236 4.86426 7.54492C5.74292 6.66645 7.15731 6.66699 9.98535 6.66699H21.8994ZM24.7451 11.4443C24.4573 11.0142 23.8938 10.8788 23.4463 11.1162L23.3584 11.1689L15.9434 16.1299L8.52734 11.1689L8.43945 11.1162C7.992 10.8787 7.4285 11.0143 7.14062 11.4443C6.85303 11.8745 6.94289 12.4465 7.33301 12.7695L7.41602 12.8311L14.8311 17.792L14.959 17.8711C15.6125 18.2406 16.4237 18.2141 17.0547 17.792L24.4707 12.8311C24.9291 12.5239 25.0518 11.9031 24.7451 11.4443Z" fill="#8D5D1D"/>
</svg>
