<svg width="24" height="24" viewBox="0 0 24 24" fill="none" xmlns="http://www.w3.org/2000/svg">
<path d="M17.2777 5.46C17.0412 5.46 16.8101 5.53038 16.6134 5.66224C16.4168 5.79409 16.2635 5.98151 16.173 6.20078C16.0825 6.42005 16.0589 6.66133 16.105 6.89411C16.1511 7.12689 16.265 7.34071 16.4322 7.50853C16.5995 7.67635 16.8125 7.79064 17.0445 7.83694C17.2764 7.88324 17.5168 7.85948 17.7353 7.76866C17.9538 7.67783 18.1405 7.52402 18.2719 7.32668C18.4033 7.12935 18.4734 6.89734 18.4734 6.66C18.4734 6.34174 18.3474 6.03652 18.1232 5.81147C17.899 5.58643 17.5948 5.46 17.2777 5.46ZM21.8612 7.88C21.8418 7.0503 21.687 6.2294 21.4029 5.45C21.1495 4.78313 20.7552 4.17928 20.247 3.68C19.7536 3.16743 19.1505 2.77418 18.4834 2.53C17.7088 2.23616 16.89 2.07721 16.0621 2.06C15.0059 2 14.6671 2 11.9569 2C9.24666 2 8.90788 2 7.85169 2.06C7.02382 2.07721 6.20496 2.23616 5.43041 2.53C4.76449 2.77665 4.16192 3.16956 3.66677 3.68C3.15603 4.17518 2.76419 4.78044 2.5209 5.45C2.22811 6.22734 2.06973 7.04915 2.05258 7.88C1.9928 8.94 1.9928 9.28 1.9928 12C1.9928 14.72 1.9928 15.06 2.05258 16.12C2.06973 16.9508 2.22811 17.7727 2.5209 18.55C2.76419 19.2196 3.15603 19.8248 3.66677 20.32C4.16192 20.8304 4.76449 21.2234 5.43041 21.47C6.20496 21.7638 7.02382 21.9228 7.85169 21.94C8.90788 22 9.24666 22 11.9569 22C14.6671 22 15.0059 22 16.0621 21.94C16.89 21.9228 17.7088 21.7638 18.4834 21.47C19.1505 21.2258 19.7536 20.8326 20.247 20.32C20.7574 19.8226 21.1521 19.2182 21.4029 18.55C21.687 17.7706 21.8418 16.9497 21.8612 16.12C21.8612 15.06 21.921 14.72 21.921 12C21.921 9.28 21.921 8.94 21.8612 7.88ZM20.0677 16C20.0604 16.6348 19.9459 17.2637 19.7289 17.86C19.5698 18.2952 19.3143 18.6884 18.9816 19.01C18.6584 19.3405 18.2674 19.5964 17.8357 19.76C17.2416 19.9778 16.6149 20.0927 15.9824 20.1C14.986 20.15 14.6173 20.16 11.9968 20.16C9.37619 20.16 9.00752 20.16 8.01111 20.1C7.35437 20.1123 6.70043 20.0109 6.07808 19.8C5.66535 19.6281 5.29227 19.3728 4.98203 19.05C4.65131 18.7287 4.39897 18.3352 4.24468 17.9C4.00142 17.2952 3.86649 16.6519 3.84612 16C3.84612 15 3.78634 14.63 3.78634 12C3.78634 9.37 3.78634 9 3.84612 8C3.85059 7.35106 3.96863 6.70795 4.19486 6.1C4.37028 5.67791 4.63953 5.30166 4.98203 5C5.28475 4.65617 5.65888 4.3831 6.07808 4.2C6.68544 3.98004 7.32558 3.86508 7.97126 3.86C8.96767 3.86 9.33634 3.8 11.9569 3.8C14.5775 3.8 14.9461 3.8 15.9425 3.86C16.575 3.86728 17.2017 3.98225 17.7959 4.2C18.2487 4.36865 18.6551 4.64285 18.9816 5C19.3081 5.30718 19.5632 5.68273 19.7289 6.1C19.9503 6.70893 20.065 7.35178 20.0677 8C20.1175 9 20.1275 9.37 20.1275 12C20.1275 14.63 20.1175 15 20.0677 16ZM11.9569 6.87C10.9463 6.87198 9.95906 7.17453 9.11977 7.73942C8.28049 8.30431 7.62688 9.1062 7.24152 10.0438C6.85616 10.9813 6.75636 12.0125 6.95471 13.0069C7.15307 14.0014 7.64068 14.9145 8.35595 15.631C9.07121 16.3474 9.98202 16.835 10.9733 17.0321C11.9646 17.2293 12.9918 17.1271 13.9253 16.7385C14.8587 16.35 15.6564 15.6924 16.2177 14.849C16.7789 14.0056 17.0784 13.0142 17.0784 12C17.0798 11.3251 16.9481 10.6566 16.6911 10.033C16.434 9.40931 16.0567 8.84281 15.5807 8.36605C15.1047 7.88929 14.5395 7.51168 13.9176 7.25493C13.2957 6.99818 12.6294 6.86736 11.9569 6.87ZM11.9569 15.33C11.3006 15.33 10.6591 15.1347 10.1135 14.7688C9.56784 14.4029 9.14256 13.8828 8.89142 13.2743C8.64029 12.6659 8.57458 11.9963 8.70261 11.3503C8.83063 10.7044 9.14665 10.111 9.61068 9.64533C10.0747 9.17963 10.6659 8.86247 11.3096 8.73398C11.9532 8.6055 12.6204 8.67144 13.2267 8.92348C13.8329 9.17552 14.3512 9.60234 14.7157 10.15C15.0803 10.6976 15.2749 11.3414 15.2749 12C15.2749 12.4373 15.1891 12.8703 15.0224 13.2743C14.8556 13.6784 14.6112 14.0454 14.3031 14.3547C13.995 14.6639 13.6292 14.9092 13.2267 15.0765C12.8241 15.2439 12.3926 15.33 11.9569 15.33Z" fill="white"/>
</svg>
