<svg width="32" height="32" viewBox="0 0 32 32" fill="none" xmlns="http://www.w3.org/2000/svg">
<path d="M19.9141 28C21.7995 28 22.7424 27.9998 23.3281 27.4141C23.9138 26.8283 23.9141 25.8855 23.9141 24V8C23.9141 6.1145 23.9138 5.17173 23.3281 4.58594C22.7424 4.00017 21.7995 4 19.9141 4H11.9717C10.0861 4 9.14243 4.00015 8.55664 4.58594C7.97114 5.17175 7.97168 6.11469 7.97168 8V24C7.97168 25.8853 7.97114 26.8283 8.55664 27.4141C9.14243 27.9998 10.0861 28 11.9717 28H19.9141ZM13.2852 7.16699C13.0093 7.16683 12.7853 6.94288 12.7852 6.66699C12.7852 6.39095 13.0092 6.16716 13.2852 6.16699H18.5996L18.7002 6.17676C18.928 6.22338 19.0996 6.42537 19.0996 6.66699C19.0995 6.90847 18.9279 7.11062 18.7002 7.15723L18.5996 7.16699H13.2852ZM15.9424 25.333C15.2087 25.3329 14.6143 24.7363 14.6143 24C14.6143 23.2637 15.2087 22.6671 15.9424 22.667C16.6761 22.667 17.2715 23.2636 17.2715 24C17.2715 24.7364 16.6761 25.333 15.9424 25.333Z" fill="#8D5D1D"/>
</svg>
