<svg width="24" height="24" viewBox="0 0 24 24" fill="none" xmlns="http://www.w3.org/2000/svg">
<path d="M20.3965 2.00014H3.51733C3.3276 1.9975 3.1392 2.03239 2.9629 2.10282C2.7866 2.17326 2.62585 2.27786 2.48983 2.41065C2.35382 2.54344 2.2452 2.70182 2.17018 2.87675C2.09516 3.05167 2.05521 3.23972 2.05261 3.43014V20.5701C2.05521 20.7606 2.09516 20.9486 2.17018 21.1235C2.2452 21.2985 2.35382 21.4568 2.48983 21.5896C2.62585 21.7224 2.7866 21.827 2.9629 21.8975C3.1392 21.9679 3.3276 22.0028 3.51733 22.0001H20.3965C20.5863 22.0028 20.7747 21.9679 20.951 21.8975C21.1273 21.827 21.288 21.7224 21.424 21.5896C21.56 21.4568 21.6686 21.2985 21.7437 21.1235C21.8187 20.9486 21.8586 20.7606 21.8612 20.5701V3.43014C21.8586 3.23972 21.8187 3.05167 21.7437 2.87675C21.6686 2.70182 21.56 2.54344 21.424 2.41065C21.288 2.27786 21.1273 2.17326 20.951 2.10282C20.7747 2.03239 20.5863 1.9975 20.3965 2.00014ZM8.06096 18.7401H5.07173V9.74014H8.06096V18.7401ZM6.56635 8.48014C6.1541 8.48014 5.75873 8.31578 5.46722 8.02323C5.17572 7.73067 5.01195 7.33388 5.01195 6.92014C5.01195 6.5064 5.17572 6.10961 5.46722 5.81705C5.75873 5.5245 6.1541 5.36014 6.56635 5.36014C6.78526 5.33522 7.00694 5.35699 7.21688 5.42402C7.42682 5.49105 7.62029 5.60183 7.78462 5.7491C7.94894 5.89637 8.08042 6.07682 8.17044 6.27862C8.26046 6.48043 8.30699 6.69904 8.30699 6.92014C8.30699 7.14124 8.26046 7.35985 8.17044 7.56166C8.08042 7.76346 7.94894 7.94391 7.78462 8.09118C7.62029 8.23845 7.42682 8.34923 7.21688 8.41626C7.00694 8.48329 6.78526 8.50505 6.56635 8.48014ZM18.8421 18.7401H15.8529V13.9101C15.8529 12.7001 15.4244 11.9101 14.3383 11.9101C14.0022 11.9126 13.6749 12.0184 13.4006 12.2133C13.1262 12.4082 12.9179 12.6828 12.8039 13.0001C12.7259 13.2352 12.6921 13.4827 12.7042 13.7301V18.7301H9.715C9.715 18.7301 9.715 10.5501 9.715 9.73014H12.7042V11.0001C12.9758 10.5272 13.3707 10.1377 13.8466 9.87334C14.3224 9.60902 14.861 9.47999 15.4045 9.50014C17.3973 9.50014 18.8421 10.7901 18.8421 13.5601V18.7401Z" fill="white"/>
</svg>
