<svg width="31" height="32" viewBox="0 0 31 32" fill="none" xmlns="http://www.w3.org/2000/svg">
<path d="M15.4961 2.66699C20.4884 2.66699 24.5352 6.84534 24.5352 12C24.5352 18.814 17.6745 22.863 15.9072 23.793C15.6477 23.9295 15.3445 23.9295 15.085 23.793C13.3175 22.8629 6.45703 18.8139 6.45703 12C6.45703 6.84537 10.5038 2.66703 15.4961 2.66699ZM15.4961 8C13.3566 8.00004 11.6221 9.79089 11.6221 12C11.6221 14.2091 13.3566 16 15.4961 16C17.6357 16 19.3701 14.2091 19.3701 12C19.3701 9.79086 17.6357 8 15.4961 8Z" fill="#8D5D1D"/>
<path d="M23.3245 22C24.1179 22.6081 24.5356 23.2979 24.5356 24C24.5356 24.7021 24.1179 25.3919 23.3245 26C22.5312 26.6081 21.39 27.113 20.0159 27.4641C18.6417 27.8152 17.0829 28 15.4962 28C13.9094 28 12.3506 27.8152 10.9764 27.4641C9.60227 27.113 8.46116 26.6081 7.66778 26C6.8744 25.3919 6.45673 24.7021 6.45673 24C6.45673 23.2979 6.8744 22.6081 7.66778 22" stroke="#8D5D1D" stroke-width="2" stroke-linecap="round"/>
</svg>
