<svg width="24" height="24" viewBox="0 0 24 24" fill="none" xmlns="http://www.w3.org/2000/svg">
<path d="M21.921 5.80021C21.172 6.1263 20.38 6.34187 19.5695 6.44021C20.4246 5.92753 21.0653 5.12099 21.373 4.17021C20.5694 4.65027 19.6898 4.98851 18.7723 5.17021C18.1591 4.50278 17.3425 4.05851 16.4505 3.90706C15.5586 3.75562 14.6418 3.90557 13.8439 4.3334C13.046 4.76123 12.4122 5.44274 12.0418 6.27105C11.6715 7.09935 11.5855 8.0276 11.7975 8.91021C10.1728 8.82774 8.58349 8.40316 7.13293 7.66407C5.68237 6.92498 4.40296 5.8879 3.37781 4.62021C3.01824 5.25038 2.8293 5.96403 2.82978 6.69021C2.82851 7.36459 2.99341 8.02883 3.30981 8.62377C3.62621 9.21872 4.08428 9.72592 4.64325 10.1002C3.99357 10.0825 3.35777 9.90751 2.78993 9.59021V9.64021C2.79479 10.5851 3.12471 11.4993 3.72388 12.2282C4.32304 12.957 5.15466 13.4559 6.07808 13.6402C5.72261 13.7488 5.35356 13.806 4.98203 13.8102C4.72484 13.8072 4.4683 13.7838 4.21479 13.7402C4.47775 14.553 4.98663 15.2634 5.67062 15.7724C6.35461 16.2814 7.17968 16.5638 8.03104 16.5802C6.59342 17.7155 4.8185 18.3351 2.98921 18.3402C2.65614 18.3413 2.32334 18.3213 1.9928 18.2802C3.8605 19.4905 6.03704 20.1329 8.26021 20.1302C9.79438 20.1462 11.3163 19.8552 12.7372 19.2743C14.1581 18.6934 15.4493 17.8341 16.5356 16.7467C17.6219 15.6593 18.4813 14.3656 19.0638 12.9411C19.6463 11.5166 19.9402 9.98994 19.9282 8.45021C19.9282 8.28021 19.9282 8.10021 19.9282 7.92021C20.7101 7.33502 21.3844 6.61763 21.921 5.80021V5.80021Z" fill="white"/>
</svg>
